# xmcd
#
# Track frame offsets:
#	150
#	10853
#	19485
#	36070
#	47480
#	58970
#	70214
#	82243
#	95494
#	104656
#
# Disc length: 1565 seconds
#
# Revision: 0
# Processed by: cddbd v1.5.2PL0 Copyright (c) Steve Scherf et al.
# Submitted via: EZCDAudioConverter 3.1.7.1
#
DISCID=89061b0a
DTITLE=Charles Jacobie - Goue Treffers
DYEAR=1900
DGENRE=
TTITLE0=My Hart Verlang na Boland
TTITLE1=Die Heideland
TTITLE2=Die Drakensberge
TTITLE3=Ou Kraal Lietjie
TTITLE4=Ou Ryperd
TTITLE5=Saggies Klink so n Melodie
TTITLE6=Daar doer in n bosveld
TTITLE7=Ruiter in die Nag
TTITLE8=Blou Trien
TTITLE9=Blonde Matroos
EXTD=
EXTT0=
EXTT1=
EXTT2=
EXTT3=
EXTT4=
EXTT5=
EXTT6=
EXTT7=
EXTT8=
EXTT9=
PLAYORDER=
